<?xml version="1.0" encoding="utf-8"?>
<!-- Generator: Adobe Illustrator 19.0.0, SVG Export Plug-In . SVG Version: 6.00 Build 0)  -->
<svg version="1.0" id="Layer_1" xmlns="http://www.w3.org/2000/svg" xmlns:xlink="http://www.w3.org/1999/xlink" x="0px" y="0px"
	 viewBox="-1897.5 927.5 316.5 317" style="enable-background:new -1897.5 927.5 316.5 317;" xml:space="preserve">
<style type="text/css">
	.st0{opacity:0.94;}
	.st1{fill:none;stroke:#FFFFFF;stroke-miterlimit:10;}
	.st2{fill:none;stroke:#FFFFFF;}
	.st3{opacity:0.75;}
	.st4{fill:none;stroke:#7E1B57;stroke-miterlimit:10;}
	.st5{fill:none;stroke:#7E1B57;}
	.st6{opacity:0.48;}
	.st7{fill:none;}
	.st8{fill:none;stroke:#7DA2F8;}
</style>
<g id="Rectangle_18" transform="translate(0 95.017) rotate(-42)" class="st0">
	<path class="st1" d="M-2000.8-493.9h92c13.8,0,25,11.2,25,25l0,92c0,13.8-11.2,25-25,25l-92,0c-13.8,0-25-11.2-25-25v-92
		C-2025.8-482.8-2014.6-493.9-2000.8-493.9z"/>
	<path class="st2" d="M-2000.8-493.4h92c13.5,0,24.5,11,24.5,24.5l0,92c0,13.5-11,24.5-24.5,24.5l-92,0c-13.5,0-24.5-11-24.5-24.5
		v-92C-2025.3-482.5-2014.4-493.4-2000.8-493.4z"/>
</g>
<g id="Rectangle_19" transform="translate(0 116.429) rotate(-42)" class="st3">
	<path class="st4" d="M-2003.3-527.1h124c13.8,0,25,11.2,25,25v124c0,13.8-11.2,25-25,25l-124,0c-13.8,0-25-11.2-25-25v-124
		C-2028.3-515.9-2017.1-527.1-2003.3-527.1z"/>
	<path class="st5" d="M-2003.3-526.6h124c13.5,0,24.5,11,24.5,24.5v124c0,13.5-11,24.5-24.5,24.5l-124,0c-13.5,0-24.5-11-24.5-24.5
		v-124C-2027.8-515.6-2016.8-526.6-2003.3-526.6z"/>
</g>
<g id="Rectangle_21" transform="translate(0 147.878) rotate(-42)" class="st6">
	<rect x="-2030.2" y="-577.3" class="st7" width="221" height="221"/>
	<rect x="-2029.7" y="-576.8" class="st8" width="220" height="220"/>
</g>
</svg>
