<?xml version="1.0" encoding="utf-8"?>
<!-- Generator: Adobe Illustrator 19.0.0, SVG Export Plug-In . SVG Version: 6.00 Build 0)  -->
<svg version="1.1" id="Layer_1" xmlns="http://www.w3.org/2000/svg" xmlns:xlink="http://www.w3.org/1999/xlink" x="0px" y="0px"
	 viewBox="0 0 571.9 61" style="enable-background:new 0 0 571.9 61;" xml:space="preserve">
<style type="text/css">
	.st0{fill:#9670B1;}
	.st1{fill:#8E71B2;}
	.st2{opacity:0.83;fill:#644DA0;}
	.st3{fill:#C3ADD4;}
</style>
<path id="XMLID_82_" class="st0" d="M256.3,0c25.7,9.3,68.2,21,121.2,18.6C416.3,16.8,448,8.1,470.2,0C398.9,0,327.6,0,256.3,0z"/>
<path id="XMLID_84_" class="st1" d="M167.2,0c38.8,12.6,71.6,18,95.1,20.5c15.3,1.7,28.7,3.1,46.2,2.1c37.3-2.1,66.6-13.5,85-22.6
	C318.1,0,242.6,0,167.2,0z"/>
<path id="XMLID_85_" class="st2" d="M248.1,0c10.9,3,26.9,7.2,46.5,11.3c33.4,7.1,42.4,6.9,46.5,6.7c10.8-0.6,29.2-3.6,51-18
	C344.1,0,296.1,0,248.1,0z"/>
<path id="XMLID_4_" class="st3" d="M0,0v13.8c10.1,0.5,21.4,0.4,33.7-0.7c23.8-2.2,43.6-7.7,58.4-13C61.4,0,30.7,0,0,0z"/>
</svg>
