<?xml version="1.0" encoding="utf-8"?>
<!-- Generator: Adobe Illustrator 19.0.0, SVG Export Plug-In . SVG Version: 6.00 Build 0)  -->
<svg version="1.0" id="Layer_1" xmlns="http://www.w3.org/2000/svg" xmlns:xlink="http://www.w3.org/1999/xlink" x="0px" y="0px"
	 viewBox="0 0 3872.1 2177" style="enable-background:new 0 0 3872.1 2177;" xml:space="preserve">
<style type="text/css">
	.st0{fill:none;stroke:#717171;}
	.st1{fill:#F79662;}
	.st2{fill:#5D5E5E;}
	.st3{fill:#094441;}
	.st4{fill:#067B78;}
	.st5{fill:#7DC78F;}
	.st6{fill:#F7CA5D;}
	.st7{fill:#FFFFFF;stroke:#000000;stroke-miterlimit:10;}
	.st8{opacity:0.49;fill:#4D4F4D;}
	.st9{opacity:0.33;fill:#D3AB52;}
	.st10{fill:#35968F;}
	.st11{opacity:0.59;fill:#D3AB52;}
	.st12{fill:#4A4849;stroke:#000000;stroke-miterlimit:10;}
	.st13{fill:#7C7A76;stroke:#000000;stroke-miterlimit:10;}
	.st14{opacity:0.22;fill:#619B6E;}
	.st15{opacity:0.23;fill:#4D4F4D;}
	.st16{opacity:9.000000e-002;fill:#4D4F4D;}
	.st17{fill:#4D4F4D;}
	.st18{fill:#00B3B6;}
	.st19{fill:#0B8484;}
	.st20{fill:#9459A4;}
	.st21{fill:#4F4F4F;}
	.st22{opacity:0.49;fill:#565248;}
	.st23{opacity:0.18;fill:#565248;}
</style>
<path id="Path_6" class="st0" d="M445.6,1214.8c0,0-94.4-761.3,201.9-795.3s556.3,641.2,983.1,701.6s322-403.9,709.3-430
	c387.3-26.1,859.9,368.1,859.9,368.1l-6.4,12.5c0,0-450.6-380.3-841.2-366.5c-390.6,13.8-298,493.7-721.6,429.1
	c-423.6-64.6-685.1-712.8-970.4-686.4c-285.3,26.4-182.9,801.9-182.9,801.9L445.6,1214.8z"/>
<path id="XMLID_22_" class="st1" d="M2165,2198.5l1706.7-1184v1187.1C3871.7,2201.5,2205,2154.5,2165,2198.5z"/>
<path id="XMLID_10_" class="st2" d="M2649,1774l120-28.4l448,431.4c-171.3,0-342.7,0-514,0C2685,2042.7,2667,1908.3,2649,1774z"/>
<path id="XMLID_5_" class="st3" d="M3513.3,992.3c38.3-130.5-26.2-247.7-112-270.4c-59.2-15.6-134.8,12.1-168.6,68.4
	c-60.2,100.2,48.4,229.8,51.1,228.7c2.5-1-80.2-127.1-31.4-202.8c29-45,97.5-61.7,149-47.1C3477.1,790.5,3532,884.2,3513.3,992.3z"
	/>
<path id="XMLID_20_" class="st4" d="M3507.6,979.7c38.3-130.5-26.2-247.7-112-270.4c-59.2-15.6-134.8,12.1-168.6,68.4
	c-60.2,100.2,48.4,229.8,51.1,228.7c2.5-1-80.2-127.1-31.4-202.8c29-45,97.5-61.7,149-47.1C3471.4,777.9,3526.3,871.6,3507.6,979.7z
	"/>
<path id="XMLID_8_" class="st5" d="M2881,1554c-99.9,97.7-180.9,195-246,284c76.4-74.9,200.5-179.4,376.1-263.6
	c9.5-4.5,19.1-9,28.9-13.4c208.6-94.2,396.3-117.5,513-123c-44-92-88-184-132-276C3266.3,1243.2,3072.2,1367,2881,1554z"/>
<path id="XMLID_7_" class="st5" d="M3622,1154.8c168,48.7,271.1,260.8,249,438c-19.7,158.6-138.8,256.2-225,327
	c-118.9,97.5-238.4,134.2-339,165c-135.4,41.5-253.4,53.8-336,57c478.2-402,717.2-603,717.1-603.1c-0.1-0.1-174.2,146.1-522.3,438.5
	c-33.6-59.9-92.6-186.7-76.7-347.3c18.1-182.4,130.5-383.6,320-456C3447.3,1159.4,3529.5,1128,3622,1154.8z"/>
<path id="XMLID_3_" class="st6" d="M3317,834c145,7,237.7,135.1,216,240c-17,82.3-104.8,151.5-212,152c-31.9-56.5-75.9-119-116-112
	c-13.3,2.3-19,11-28,8c-28.1-9.4-37.1-116.1,8-192C3223.5,865.3,3290.3,841.7,3317,834z"/>
<path id="XMLID_11_" class="st7" d="M2453,1528"/>
<polygon id="XMLID_4_" class="st8" points="3650.5,1398.1 3659.5,1579.6 3165.7,1977.3 3649,1576.6 "/>
<path id="XMLID_13_" class="st9" d="M3194,922c9.2-1.4,127.1-17.8,209,72c70.1,76.8,59.8,172,58,186c11-9.8,56.9-53.3,64-126
	c6.5-67.1-24.3-115.7-35-131c-5.8-8.2-72.6-100.1-174-85C3240.7,849.2,3200.6,911.5,3194,922z"/>
<path id="XMLID_6_" class="st3" d="M3449,967c-51,56.1,6.8,174.6,54,180c52.5,6,134.5-123.1,96-178
	C3572.5,931.2,3486.8,925.4,3449,967z"/>
<path id="XMLID_2_" class="st10" d="M3466.1,970.5c-51,56.1,6.8,174.6,54,180c52.5,6,134.5-123.1,96-178
	C3589.6,934.7,3503.9,928.9,3466.1,970.5z"/>
<path id="XMLID_21_" class="st4" d="M3477.5,970.5c-51,56.1,6.8,174.6,54,180c52.5,6,134.5-123.1,96-178
	C3601,934.7,3515.3,928.9,3477.5,970.5z"/>
<path id="XMLID_12_" class="st11" d="M3208.8,1113.4c32.8-10.1,68.5-0.7,91.5,24c33.7,36.1,20.7,83.8,20,86
	c-10.3-17.2-25.9-41.9-45.1-67.1c-0.9-1.2-13.4-17.3-31.1-30.3c-5.4-3.9-12-8.1-21.2-10.6
	C3217.2,1113.8,3212.3,1113.4,3208.8,1113.4z"/>
<polygon id="XMLID_14_" class="st12" points="2403,1434 2428,1428 2693,1775 2673,1788 "/>
<path id="XMLID_9_" class="st13" d="M2701,2174c-82.7-106-165.3-212-248-318c-16.7-140.7-33.3-281.3-50-422c90,118,180,236,270,354
	C2682.3,1916.7,2691.7,2045.3,2701,2174z"/>
<path id="XMLID_15_" class="st12" d="M2702,2177.1c7.3-1,14.7-2,22-3.1l-31-402l-20,13C2682.7,1915.7,2692.3,2046.4,2702,2177.1z"/>
<path id="XMLID_17_" class="st14" d="M3386,1217c20.4-6.2,47.7-17.2,75.7-37.3c14.3-10.3,26-20.9,35.3-30.7
	c28.8-5,77.1-9.2,131.7,7.3c96.8,29.3,147.2,103.6,172.3,140.8c79.5,117.4,71.8,239.7,69.3,268.2c-8,91.5-44.6,158.2-66,191.3
	c4.8-14.2,68.8-214.8-66.3-385.7C3606,1204.1,3402.7,1215.7,3386,1217z"/>
<path id="XMLID_16_" class="st15" d="M3061.7,2065.6c32.8,9.8,68,17,105.3,20.4c254.2,23.1,454-144.2,523-208
	c-87.5,49.7-206.8,105.6-355,144C3232.7,2048.5,3139.8,2060.7,3061.7,2065.6z"/>
<path id="XMLID_19_" class="st16" d="M3165.7,1977.3c-26.8-52.2-73.2-156.4-77.7-280.3c-1.4-37.4-3.2-89.5,16.5-151.5
	c7.3-23,14.3-36.8,37-89.5c21.7-50.2,38.5-91.2,49.2-117.7c-23.7,151.1,30.8,290.5,135.9,350.7c56.1,32.2,114.3,34.7,152.5,31.9
	C3374.6,1806.4,3270.1,1891.9,3165.7,1977.3z"/>
<path id="XMLID_18_" class="st17" d="M2938,1297.6"/>
<path id="XMLID_24_" class="st6" d="M489.2,1549.1c-0.1,19.8-0.2,39.6-0.3,59.4c33.2,2.2,78,2.3,130-6c50.5-8.1,186.1-29.9,196-88
	c8-47-69.8-97.3-108-122c-60.8-39.3-119.3-53.6-154.8-59.5c168.3-43.4,317.9,29.7,352.8,134.8c36,108.6-61.2,219-70,228.8
	c-95.7,105.8-233.7,97.4-252,96c14.3,71,27.3,146.4,38,226c7.5,55.8,13.4,109.9,18,162c-173.3-1.5-346.5-3-519.8-4.5
	c-91.5-107.7-109.2-259.6-45-382.5c59.7-114.2,180.6-185.2,311.5-183.1c0.4-22,0.9-44,1.3-66C421,1546.1,455.1,1547.6,489.2,1549.1z
	"/>
<rect id="XMLID_26_" x="547.2" y="1287.2" transform="matrix(0.7865 -0.6176 0.6176 0.7865 -715.2578 657.6522)" class="st18" width="92.7" height="152.1"/>
<rect id="XMLID_28_" x="530.7" y="1296.5" transform="matrix(0.7865 -0.6176 0.6176 0.7865 -720.5897 650.9075)" class="st19" width="100.6" height="142.2"/>
<circle id="XMLID_1_" class="st6" cx="438.9" cy="1410.9" r="156"/>
<path id="XMLID_25_" class="st20" d="M60.4,1823.2c42.8,17.1,85.6,34.3,128.5,51.4c9.3-41.4,18.7-82.8,28-124.1
	c-32.6,142.3-65.1,284.6-97.7,426.8c173.2,1.1,346.4,2.2,519.7,3.3l-56-388l121.2-14.2c-6.9-62.2-13.9-124.3-20.8-186.4
	c-64.8,5.6-129.6,11.1-194.3,16.7c6.6,42.4-23.6,75.4-50,76c-26.5,0.6-58.2-31.2-53.3-74c-30.1-0.7-111.4,1.3-194,54.7
	C107,1719.8,71.8,1795.5,60.4,1823.2z"/>
<path id="XMLID_23_" class="st21" d="M285.2,1384.1c-3-22.1-11.7-103.8,39.4-161.9c66-75.2,209.6-85.6,330,1.5
	c-14.5,33.6-41,80.8-85.5,91.5c-67.4,16.2-117.9-65.3-184.5-51C357.4,1270,319.2,1293.5,285.2,1384.1z"/>
<path id="XMLID_27_" class="st22" d="M61.5,1821.5c13.1-30,45.8-93.5,115.9-144.3c86.4-62.5,175.9-66.6,207.6-66.6
	c-0.5,4.8-3,36.1,19.7,58c9.5,9.1,19.9,13.3,26.7,15.3c-9.5,81.1-18.2,164.2-26,249.3c-7.4,82-13.6,162.4-18.7,241
	c-84.8,0.1-169.5,0.3-254.3,0.4c25.1-100.9,50.2-201.8,75.3-302.7C158.9,1855.2,110.2,1838.3,61.5,1821.5z"/>
<path id="XMLID_29_" class="st23" d="M284.6,1434.1c-1.8-9.6-3.4-24.5-0.7-42.1c3.3-21.5,11.2-35.8,23.1-56.9
	c4.3-7.6,19.5-34.1,39.8-51.8c9.8-8.5,17.8-12.4,22.4-14.4c6.2-2.6,11.6-4,15.4-4.7c-4,61.4-1.5,141.2,22.4,229.8
	c7.9,29.2,17.2,55.8,27,80c-0.9,36.7-1.8,73.3-2.7,110c-5.3-1.7-23.1-8.2-35.3-26.8c-13.7-20.7-11-42-10.2-47.1
	c0.6-17.4,1.1-34.8,1.7-52.2c-7.7-2.5-18.5-6.8-30.5-14c-9.1-5.5-33.6-21.2-51-51c-4.8-8.2-9.9-18.5-14.2-30.8
	C288.2,1451.8,286,1442.3,284.6,1434.1z"/>
</svg>
