<?xml version="1.0" encoding="utf-8"?>
<!-- Generator: Adobe Illustrator 19.0.0, SVG Export Plug-In . SVG Version: 6.00 Build 0)  -->
<svg version="1.0" id="Layer_1" xmlns="http://www.w3.org/2000/svg" xmlns:xlink="http://www.w3.org/1999/xlink" x="0px" y="0px"
	 viewBox="0 0 44 348.8" style="enable-background:new 0 0 44 348.8;" xml:space="preserve">
<style type="text/css">
	.st0{fill:#C3B176;}
</style>
<path id="XMLID_5_" class="st0" d="M26.3,188.8h-8.4c-8.9,0-16.1-7.2-16.1-16.1v-0.9c0-8.9,7.2-16.1,16.1-16.1h8.4
	c8.9,0,16.1,7.2,16.1,16.1v0.9C42.4,181.6,35.2,188.8,26.3,188.8z"/>
<path id="XMLID_4_" class="st0" d="M33.3,145H10.1c-2,0-3.6-1.6-3.6-3.6v-5.5c0-2,1.6-3.6,3.6-3.6h23.2c2,0,3.6,1.6,3.6,3.6v5.5
	C36.9,143.4,35.3,145,33.3,145z"/>
<path id="XMLID_3_" class="st0" d="M35.3,211.3h-26c-1.2,0-2.2-1-2.2-2.2v-8.2c0-1.2,1-2.2,2.2-2.2h26c1.2,0,2.2,1,2.2,2.2v8.2
	C37.6,210.3,36.6,211.3,35.3,211.3z"/>
<rect id="XMLID_2_" x="21.3" y="1.3" class="st0" width="1.8" height="118.6"/>
<rect id="XMLID_1_" x="21.2" y="227.2" class="st0" width="1.8" height="120"/>
</svg>
